<?xml version="1.0" encoding="UTF-8"?>
<!DOCTYPE svg PUBLIC "-//W3C//DTD SVG 1.1//EN" "http://www.w3.org/Graphics/SVG/1.1/DTD/svg11.dtd">
<svg xmlns="http://www.w3.org/2000/svg" version="1.1" width="223px" height="193px" style="shape-rendering:geometricPrecision; text-rendering:geometricPrecision; image-rendering:optimizeQuality; fill-rule:evenodd; clip-rule:evenodd" xmlns:xlink="http://www.w3.org/1999/xlink">
<g><path style="opacity:0.921" fill="#fd01f4" d="M 109.5,-0.5 C 110.167,-0.5 110.833,-0.5 111.5,-0.5C 117.099,9.03307 122.433,18.6997 127.5,28.5C 123.931,26.8815 120.264,25.5481 116.5,24.5C 114.745,21.3197 112.745,18.3197 110.5,15.5C 109.575,16.3569 108.908,17.3569 108.5,18.5C 105.673,18.4162 103.006,17.7496 100.5,16.5C 103.767,10.9647 106.767,5.29808 109.5,-0.5 Z"/></g>
<g><path style="opacity:0.919" fill="#f608f4" d="M 100.5,16.5 C 103.006,17.7496 105.673,18.4162 108.5,18.5C 107.248,20.0009 106.248,21.6675 105.5,23.5C 102.982,22.7362 100.649,21.7362 98.5,20.5C 98.7329,18.9382 99.3995,17.6049 100.5,16.5 Z"/></g>
<g><path style="opacity:0.895" fill="#f00ef4" d="M 98.5,20.5 C 100.649,21.7362 102.982,22.7362 105.5,23.5C 104.525,25.7952 103.192,27.7952 101.5,29.5C 101.423,28.2502 100.756,27.4169 99.5,27C 97.8659,26.5065 96.1992,26.3398 94.5,26.5C 95.8465,24.4632 97.1798,22.4632 98.5,20.5 Z"/></g>
<g><path style="opacity:0.932" fill="#f608f4" d="M 116.5,24.5 C 120.264,25.5481 123.931,26.8815 127.5,28.5C 129.653,30.7937 131.32,33.4604 132.5,36.5C 128.736,35.4519 125.069,34.1185 121.5,32.5C 119.847,29.8695 118.181,27.2028 116.5,24.5 Z"/></g>
<g><path style="opacity:0.931" fill="#ea14f4" d="M 94.5,26.5 C 96.1992,26.3398 97.8659,26.5065 99.5,27C 100.756,27.4169 101.423,28.2502 101.5,29.5C 101.25,31.674 100.25,33.3406 98.5,34.5C 97.0527,32.5968 95.386,30.9301 93.5,29.5C 93.5569,28.391 93.8902,27.391 94.5,26.5 Z"/></g>
<g><path style="opacity:0.962" fill="#e31bf4" d="M 93.5,29.5 C 95.386,30.9301 97.0527,32.5968 98.5,34.5C 98.2503,36.674 97.2503,38.3406 95.5,39.5C 94.746,37.4947 93.5793,36.828 92,37.5C 91.2917,36.6195 90.4584,35.9528 89.5,35.5C 90.3507,33.1184 91.684,31.1184 93.5,29.5 Z"/></g>
<g><path style="opacity:0.943" fill="#f00ef4" d="M 121.5,32.5 C 125.069,34.1185 128.736,35.4519 132.5,36.5C 134.766,40.0337 136.766,43.7004 138.5,47.5C 136.454,45.7211 134.287,44.0544 132,42.5C 131.667,42.8333 131.333,43.1667 131,43.5C 129.67,42.4178 128.17,41.7512 126.5,41.5C 124.583,38.669 122.917,35.669 121.5,32.5 Z"/></g>
<g><path style="opacity:0.914" fill="#dd21f4" d="M 89.5,35.5 C 90.4584,35.9528 91.2917,36.6195 92,37.5C 93.5793,36.828 94.746,37.4947 95.5,39.5C 95.3404,41.153 94.6737,42.4863 93.5,43.5C 91.2048,42.5254 89.2048,41.1921 87.5,39.5C 87.7329,37.9382 88.3995,36.6049 89.5,35.5 Z"/></g>
<g><path style="opacity:0.95" fill="#d728f4" d="M 87.5,39.5 C 89.2048,41.1921 91.2048,42.5254 93.5,43.5C 92.5294,45.4832 91.5294,47.4832 90.5,49.5C 89.7611,49.631 89.0944,49.4643 88.5,49C 89.8333,48.3333 89.8333,47.6667 88.5,47C 86.8659,46.5065 85.1992,46.3398 83.5,46.5C 84.5839,43.9959 85.9172,41.6626 87.5,39.5 Z"/></g>
<g><path style="opacity:0.951" fill="#e915f4" d="M 126.5,41.5 C 128.17,41.7512 129.67,42.4178 131,43.5C 131.333,43.1667 131.667,42.8333 132,42.5C 134.287,44.0544 136.454,45.7211 138.5,47.5C 140.924,50.0078 142.59,53.0078 143.5,56.5C 140.136,54.3175 136.47,52.9841 132.5,52.5C 130.5,48.8333 128.5,45.1667 126.5,41.5 Z"/></g>
<g><path style="opacity:0.923" fill="#fd01f4" d="M 120.5,61.5 C 119.749,62.5735 118.749,62.7401 117.5,62C 113.072,59.4594 108.738,56.9594 104.5,54.5C 105.986,50.863 107.986,47.5296 110.5,44.5C 114.613,49.7283 117.946,55.3949 120.5,61.5 Z"/></g>
<g><path style="opacity:0.926" fill="#d02ef3" d="M 83.5,46.5 C 85.1992,46.3398 86.8659,46.5065 88.5,47C 89.8333,47.6667 89.8333,48.3333 88.5,49C 89.0944,49.4643 89.7611,49.631 90.5,49.5C 89.5254,51.7952 88.1921,53.7952 86.5,55.5C 86.5,52.1667 84.8333,50.5 81.5,50.5C 81.6596,48.847 82.3263,47.5137 83.5,46.5 Z"/></g>
<g><path style="opacity:0.978" fill="#cb33f3" d="M 81.5,50.5 C 84.8333,50.5 86.5,52.1667 86.5,55.5C 86.4431,56.609 86.1098,57.609 85.5,58.5C 84.4559,56.5084 82.4559,54.8417 79.5,53.5C 79.427,51.9731 80.0937,50.9731 81.5,50.5 Z"/></g>
<g><path style="opacity:0.939" fill="#e21bf3" d="M 132.5,52.5 C 136.47,52.9841 140.136,54.3175 143.5,56.5C 145.735,59.2911 147.735,62.2911 149.5,65.5C 145.167,63.5 140.833,61.5 136.5,59.5C 135.42,57.0038 134.086,54.6705 132.5,52.5 Z"/></g>
<g><path style="opacity:0.967" fill="#f608f4" d="M 104.5,54.5 C 108.738,56.9594 113.072,59.4594 117.5,62C 118.749,62.7401 119.749,62.5735 120.5,61.5C 122.153,64.1305 123.819,66.7972 125.5,69.5C 117.583,66.2223 109.916,62.5556 102.5,58.5C 102.66,56.847 103.326,55.5137 104.5,54.5 Z"/></g>
<g><path style="opacity:0.974" fill="#c638f3" d="M 79.5,53.5 C 82.4559,54.8417 84.4559,56.5084 85.5,58.5C 84.8333,59.5 84.1667,60.5 83.5,61.5C 81.9028,60.9095 80.5695,59.9095 79.5,58.5C 78.8076,59.0253 78.3076,59.6919 78,60.5C 77.7679,59.2625 77.2679,58.2625 76.5,57.5C 77.5116,56.1283 78.5116,54.795 79.5,53.5 Z"/></g>
<g><path style="opacity:0.98" fill="#ef0ff4" d="M 102.5,58.5 C 109.916,62.5556 117.583,66.2223 125.5,69.5C 126.529,71.5168 127.529,73.5168 128.5,75.5C 119.064,71.0224 109.731,66.3558 100.5,61.5C 100.427,59.9731 101.094,58.9731 102.5,58.5 Z"/></g>
<g><path style="opacity:0.898" fill="#bf3ff3" d="M 76.5,57.5 C 77.2679,58.2625 77.7679,59.2625 78,60.5C 78.3076,59.6919 78.8076,59.0253 79.5,58.5C 80.5695,59.9095 81.9028,60.9095 83.5,61.5C 82.5254,63.7952 81.1921,65.7952 79.5,67.5C 79.6106,65.3523 78.944,65.019 77.5,66.5C 76.4653,63.7344 74.7986,63.0677 72.5,64.5C 74.0862,62.3295 75.4196,59.9962 76.5,57.5 Z"/></g>
<g><path style="opacity:0.991" fill="#e915f4" d="M 100.5,61.5 C 109.731,66.3558 119.064,71.0224 128.5,75.5C 129.401,76.2905 130.068,77.2905 130.5,78.5C 130.265,79.0967 129.765,79.4301 129,79.5C 118.807,74.654 108.641,69.654 98.5,64.5C 98.9321,63.2905 99.5987,62.2905 100.5,61.5 Z"/></g>
<g><path style="opacity:0.928" fill="#dd21f4" d="M 136.5,59.5 C 140.833,61.5 145.167,63.5 149.5,65.5C 151.267,67.9384 152.601,70.605 153.5,73.5C 150.384,72.1072 147.384,70.4406 144.5,68.5C 143.817,68.8627 143.15,69.1961 142.5,69.5C 140.5,66.1667 138.5,62.8333 136.5,59.5 Z"/></g>
<g><path style="opacity:0.984" fill="#e31bf4" d="M 98.5,64.5 C 108.641,69.654 118.807,74.654 129,79.5C 129.765,79.4301 130.265,79.0967 130.5,78.5C 132.153,81.1305 133.819,83.7972 135.5,86.5C 124.491,81.3286 113.491,76.1619 102.5,71C 100.308,69.9331 98.6417,68.4331 97.5,66.5C 97.8333,65.8333 98.1667,65.1667 98.5,64.5 Z"/></g>
<g><path style="opacity:0.966" fill="#b845f3" d="M 79.5,67.5 C 79.2503,69.674 78.2503,71.3406 76.5,72.5C 76.6068,70.6214 76.1068,70.2881 75,71.5C 73.6703,70.4178 72.1703,69.7512 70.5,69.5C 70.8925,67.7162 71.5592,66.0495 72.5,64.5C 74.7986,63.0677 76.4653,63.7344 77.5,66.5C 78.944,65.019 79.6106,65.3523 79.5,67.5 Z"/></g>
<g><path style="opacity:0.983" fill="#dc22f4" d="M 97.5,66.5 C 98.6417,68.4331 100.308,69.9331 102.5,71C 113.491,76.1619 124.491,81.3286 135.5,86.5C 136.5,88.5 137.5,90.5 138.5,92.5C 138.565,92.9382 138.399,93.2716 138,93.5C 123.794,85.4807 109.294,78.1474 94.5,71.5C 95.2632,69.6316 96.2632,67.9649 97.5,66.5 Z"/></g>
<g><path style="opacity:0.919" fill="#b14df3" d="M 70.5,69.5 C 72.1703,69.7512 73.6703,70.4178 75,71.5C 76.1068,70.2881 76.6068,70.6214 76.5,72.5C 75.9213,75.3311 74.588,77.6644 72.5,79.5C 70.7713,77.2733 68.438,76.2733 65.5,76.5C 66.9336,73.9528 68.6002,71.6195 70.5,69.5 Z"/></g>
<g><path style="opacity:0.937" fill="#d627f4" d="M 153.5,73.5 C 155.988,76.4658 157.988,79.7991 159.5,83.5C 154.314,81.3913 149.981,79.058 146.5,76.5C 145.167,74.1667 143.833,71.8333 142.5,69.5C 143.15,69.1961 143.817,68.8627 144.5,68.5C 147.384,70.4406 150.384,72.1072 153.5,73.5 Z"/></g>
<g><path style="opacity:0.993" fill="#d628f4" d="M 94.5,71.5 C 109.294,78.1474 123.794,85.4807 138,93.5C 138.399,93.2716 138.565,92.9382 138.5,92.5C 139.737,93.9649 140.737,95.6316 141.5,97.5C 141.565,97.9382 141.399,98.2716 141,98.5C 125.185,90.0452 109.018,82.0452 92.5,74.5C 93.1667,73.5 93.8333,72.5 94.5,71.5 Z"/></g>
<g><path style="opacity:0.987" fill="#d02ef3" d="M 92.5,74.5 C 109.018,82.0452 125.185,90.0452 141,98.5C 141.399,98.2716 141.565,97.9382 141.5,97.5C 143.071,99.6351 144.404,101.968 145.5,104.5C 127.557,95.5107 109.557,86.5107 91.5,77.5C 91.5569,76.391 91.8902,75.391 92.5,74.5 Z"/></g>
<g><path style="opacity:0.976" fill="#aa54f3" d="M 65.5,76.5 C 68.438,76.2733 70.7713,77.2733 72.5,79.5C 72.4431,80.609 72.1098,81.609 71.5,82.5C 70.5041,82.4142 69.6708,82.7476 69,83.5C 67.5557,81.8446 65.7224,81.178 63.5,81.5C 63.8925,79.7162 64.5592,78.0495 65.5,76.5 Z"/></g>
<g><path style="opacity:0.963" fill="#d02ef3" d="M 146.5,76.5 C 149.981,79.058 154.314,81.3913 159.5,83.5C 161.153,86.1305 162.819,88.7972 164.5,91.5C 163.883,91.6107 163.383,91.944 163,92.5C 161.019,90.3425 158.686,88.6759 156,87.5C 155.283,88.0442 154.783,88.7109 154.5,89.5C 151.597,85.3699 148.93,81.0366 146.5,76.5 Z"/></g>
<g><path style="opacity:0.945" fill="#a459f2" d="M 63.5,81.5 C 65.7224,81.178 67.5557,81.8446 69,83.5C 69.6708,82.7476 70.5041,82.4142 71.5,82.5C 70.5254,84.7952 69.1921,86.7952 67.5,88.5C 65.9755,87.8262 64.6422,86.8262 63.5,85.5C 62.6143,84.675 62.281,83.675 62.5,82.5C 62.5,81.8333 62.8333,81.5 63.5,81.5 Z"/></g>
<g><path style="opacity:0.945" fill="#c43af3" d="M 88.5,81.5 C 98.9815,85.0733 108.982,89.74 118.5,95.5C 119.086,95.2907 119.586,94.9574 120,94.5C 121.92,96.4298 124.087,98.0965 126.5,99.5C 133.079,103.285 140.079,106.285 147.5,108.5C 149.192,110.205 150.525,112.205 151.5,114.5C 141.144,111.634 131.81,107.134 123.5,101C 119.425,100.376 116.092,98.5426 113.5,95.5C 112.914,95.7093 112.414,96.0426 112,96.5C 110.007,95.086 107.84,94.086 105.5,93.5C 104.439,89.4001 101.939,87.7334 98,88.5C 97.296,86.273 96.1294,85.9397 94.5,87.5C 92.4351,85.7842 90.1017,84.4509 87.5,83.5C 87.8333,82.8333 88.1667,82.1667 88.5,81.5 Z"/></g>
<g><path style="opacity:0.947" fill="#9e60f2" d="M 62.5,82.5 C 62.281,83.675 62.6143,84.675 63.5,85.5C 64.6422,86.8262 65.9755,87.8262 67.5,88.5C 66.8897,90.4341 65.8897,92.1007 64.5,93.5C 62.4622,92.2459 60.7956,90.5792 59.5,88.5C 59.9925,86.1815 60.9925,84.1815 62.5,82.5 Z"/></g>
<g><path style="opacity:0.995" fill="#ca34f3" d="M 91.5,77.5 C 109.557,86.5107 127.557,95.5107 145.5,104.5C 146.674,105.514 147.34,106.847 147.5,108.5C 140.079,106.285 133.079,103.285 126.5,99.5C 124.087,98.0965 121.92,96.4298 120,94.5C 119.586,94.9574 119.086,95.2907 118.5,95.5C 108.982,89.74 98.9815,85.0733 88.5,81.5C 89.5116,80.1283 90.5116,78.795 91.5,77.5 Z"/></g>
<g><path style="opacity:0.942" fill="#ca34f3" d="M 164.5,91.5 C 166.267,93.9384 167.601,96.605 168.5,99.5C 168.565,99.9382 168.399,100.272 168,100.5C 167.25,99.8742 166.416,99.3742 165.5,99C 166.654,98.0862 166.487,97.2529 165,96.5C 163.192,98.5582 161.025,98.8916 158.5,97.5C 157.153,94.8068 155.82,92.1401 154.5,89.5C 154.783,88.7109 155.283,88.0442 156,87.5C 158.686,88.6759 161.019,90.3425 163,92.5C 163.383,91.944 163.883,91.6107 164.5,91.5 Z"/></g>
<g><path style="opacity:1" fill="#c13df3" d="M 105.5,93.5 C 101.27,92.4637 97.6037,90.4637 94.5,87.5C 96.1294,85.9397 97.296,86.273 98,88.5C 101.939,87.7334 104.439,89.4001 105.5,93.5 Z"/></g>
<g><path style="opacity:0.949" fill="#9866f2" d="M 59.5,88.5 C 60.7956,90.5792 62.4622,92.2459 64.5,93.5C 64.3404,95.153 63.6737,96.4863 62.5,97.5C 59.8021,97.1551 57.8021,95.8218 56.5,93.5C 56.7497,91.326 57.7497,89.6594 59.5,88.5 Z"/></g>
<g><path style="opacity:1" fill="#af4ff3" d="M 92.5,98.5 C 90.8998,99.512 89.5665,99.012 88.5,97C 86.3496,95.5886 84.0163,94.7553 81.5,94.5C 81.3284,93.5084 81.6618,92.8417 82.5,92.5C 83.8221,92.67 84.9887,92.3366 86,91.5C 87.3415,94.0335 89.5082,96.3669 92.5,98.5 Z"/></g>
<g><path style="opacity:1" fill="#b846f3" d="M 86.5,85.5 C 88.5841,87.0761 90.5841,88.9095 92.5,91C 96.4963,92.3314 100.163,94.1648 103.5,96.5C 103.5,97.8333 102.833,98.5 101.5,98.5C 96.0578,95.2764 90.3911,92.2764 84.5,89.5C 84.6596,87.847 85.3263,86.5137 86.5,85.5 Z"/></g>
<g><path style="opacity:1" fill="#b24bf3" d="M 84.5,89.5 C 90.3911,92.2764 96.0578,95.2764 101.5,98.5C 98.4773,97.3224 95.4773,97.3224 92.5,98.5C 89.5082,96.3669 87.3415,94.0335 86,91.5C 84.9887,92.3366 83.8221,92.67 82.5,92.5C 82.9321,91.2905 83.5987,90.2905 84.5,89.5 Z"/></g>
<g><path style="opacity:0.946" fill="#926cf2" d="M 56.5,93.5 C 57.8021,95.8218 59.8021,97.1551 62.5,97.5C 61.7368,99.3684 60.7368,101.035 59.5,102.5C 57.4918,101.164 55.4918,99.8304 53.5,98.5C 54.1103,96.5659 55.1103,94.8993 56.5,93.5 Z"/></g>
<g><path style="opacity:1" fill="#b648f3" d="M 103.5,96.5 C 104.609,96.5569 105.609,96.8902 106.5,97.5C 106.684,100.173 107.851,100.84 110,99.5C 110.317,101.301 110.984,101.634 112,100.5C 114.914,104.131 118.58,106.798 123,108.5C 125.078,107.057 125.911,107.724 125.5,110.5C 122.501,111.74 119.835,110.574 117.5,107C 115.254,105.961 113.087,104.794 111,103.5C 110.667,103.833 110.333,104.167 110,104.5C 108.406,103.284 106.906,101.951 105.5,100.5C 103.384,101.756 102.051,101.09 101.5,98.5C 102.833,98.5 103.5,97.8333 103.5,96.5 Z"/></g>
<g><path style="opacity:0.999" fill="#c539f3" d="M 168.5,99.5 C 170.588,101.336 171.921,103.669 172.5,106.5C 168.943,103.984 165.276,102.651 161.5,102.5C 160.752,100.668 159.752,99.0009 158.5,97.5C 161.025,98.8916 163.192,98.5582 165,96.5C 166.487,97.2529 166.654,98.0862 165.5,99C 166.416,99.3742 167.25,99.8742 168,100.5C 168.399,100.272 168.565,99.9382 168.5,99.5 Z"/></g>
<g><path style="opacity:0.955" fill="#8c72f2" d="M 53.5,98.5 C 55.4918,99.8304 57.4918,101.164 59.5,102.5C 58.8897,104.434 57.8897,106.101 56.5,107.5C 53.8021,107.155 51.8021,105.822 50.5,103.5C 51.1103,101.566 52.1103,99.8993 53.5,98.5 Z"/></g>
<g><path style="opacity:0.995" fill="#9866f2" d="M 76.5,103.5 C 88.7009,108.59 101.034,114.423 113.5,121C 115.985,122.487 118.152,124.321 120,126.5C 123.882,125.83 127.215,127.163 130,130.5C 130.333,130.167 130.667,129.833 131,129.5C 144.252,137.569 158.085,144.569 172.5,150.5C 173.5,152.5 174.5,154.5 175.5,156.5C 142.883,140.109 110.05,123.775 77,107.5C 75.9701,107.164 75.4701,106.497 75.5,105.5C 75.3284,104.508 75.6618,103.842 76.5,103.5 Z"/></g>
<g><path style="opacity:0.903" fill="#8579f2" d="M 50.5,103.5 C 51.8021,105.822 53.8021,107.155 56.5,107.5C 55.8897,109.434 54.8897,111.101 53.5,112.5C 51.1475,111.66 49.1475,110.326 47.5,108.5C 48.2632,106.632 49.2632,104.965 50.5,103.5 Z"/></g>
<g><path style="opacity:0.998" fill="#916df2" d="M 75.5,105.5 C 75.4701,106.497 75.9701,107.164 77,107.5C 110.05,123.775 142.883,140.109 175.5,156.5C 177.008,158.181 178.008,160.181 178.5,162.5C 143.473,144.057 108.139,126.391 72.5,109.5C 73.0256,107.77 74.0256,106.436 75.5,105.5 Z"/></g>
<g><path style="opacity:0.958" fill="#c13df3" d="M 161.5,102.5 C 165.276,102.651 168.943,103.984 172.5,106.5C 173.401,107.29 174.068,108.29 174.5,109.5C 174.565,109.938 174.399,110.272 174,110.5C 172.018,109.906 170.184,108.74 168.5,107C 167.207,106.51 165.873,106.343 164.5,106.5C 163.026,105.564 162.026,104.23 161.5,102.5 Z"/></g>
<g><path style="opacity:0.907" fill="#7e7ff2" d="M 47.5,108.5 C 49.1475,110.326 51.1475,111.66 53.5,112.5C 52.9213,115.331 51.588,117.664 49.5,119.5C 48.267,117.204 46.267,115.87 43.5,115.5C 44.5957,112.968 45.9291,110.635 47.5,108.5 Z"/></g>
<g><path style="opacity:1" fill="#bd41f3" d="M 87.5,83.5 C 90.1017,84.4509 92.4351,85.7842 94.5,87.5C 97.6037,90.4637 101.27,92.4637 105.5,93.5C 107.84,94.086 110.007,95.086 112,96.5C 112.414,96.0426 112.914,95.7093 113.5,95.5C 116.092,98.5426 119.425,100.376 123.5,101C 131.81,107.134 141.144,111.634 151.5,114.5C 152.529,116.517 153.529,118.517 154.5,120.5C 151.319,119.666 148.152,118.666 145,117.5C 136.234,113.242 127.901,108.242 120,102.5C 118.984,103.634 118.317,103.301 118,101.5C 117.667,101.833 117.333,102.167 117,102.5C 113.949,99.8913 110.449,98.2246 106.5,97.5C 105.609,96.8902 104.609,96.5569 103.5,96.5C 100.163,94.1648 96.4963,92.3314 92.5,91C 90.5841,88.9095 88.5841,87.0761 86.5,85.5C 86.8333,84.8333 87.1667,84.1667 87.5,83.5 Z"/></g>
<g><path style="opacity:0.964" fill="#be40f3" d="M 164.5,106.5 C 165.873,106.343 167.207,106.51 168.5,107C 170.184,108.74 172.018,109.906 174,110.5C 174.399,110.272 174.565,109.938 174.5,109.5C 176.153,112.131 177.819,114.797 179.5,117.5C 176.737,117.256 174.571,115.923 173,113.5C 172.586,113.957 172.086,114.291 171.5,114.5C 170.476,113.147 169.143,112.48 167.5,112.5C 165.992,110.819 164.992,108.819 164.5,106.5 Z"/></g>
<g><path style="opacity:0.996" fill="#8c72f2" d="M 72.5,109.5 C 108.139,126.391 143.473,144.057 178.5,162.5C 179.906,162.973 180.573,163.973 180.5,165.5C 180.265,166.097 179.765,166.43 179,166.5C 174.737,164.286 170.57,161.953 166.5,159.5C 165.197,160.718 164.197,160.385 163.5,158.5C 153.592,153.915 143.925,148.915 134.5,143.5C 124.121,138.551 113.787,133.718 103.5,129C 101.651,127.907 99.9842,126.574 98.5,125C 88.9857,121.073 79.6524,116.906 70.5,112.5C 71.1667,111.5 71.8333,110.5 72.5,109.5 Z"/></g>
<g><path style="opacity:0.987" fill="#8579f2" d="M 70.5,112.5 C 79.6524,116.906 88.9857,121.073 98.5,125C 99.9842,126.574 101.651,127.907 103.5,129C 113.787,133.718 124.121,138.551 134.5,143.5C 143.925,148.915 153.592,153.915 163.5,158.5C 164.197,160.385 165.197,160.718 166.5,159.5C 170.57,161.953 174.737,164.286 179,166.5C 179.765,166.43 180.265,166.097 180.5,165.5C 181.391,166.261 182.058,167.261 182.5,168.5C 179.914,169.48 177.247,169.813 174.5,169.5C 165.659,164.72 156.826,159.72 148,154.5C 121.669,141.628 95.5019,128.628 69.5,115.5C 69.5569,114.391 69.8902,113.391 70.5,112.5 Z"/></g>
<g><path style="opacity:0.99" fill="#aa54f3" d="M 81.5,94.5 C 84.0163,94.7553 86.3496,95.5886 88.5,97C 89.5665,99.012 90.8998,99.512 92.5,98.5C 98.3189,101.575 104.319,104.408 110.5,107C 114.846,111.031 119.679,114.198 125,116.5C 126.613,115.378 127.78,115.878 128.5,118C 133.52,118.666 137.853,120.666 141.5,124C 148.786,126.976 155.786,130.476 162.5,134.5C 163.488,135.795 164.488,137.128 165.5,138.5C 163.712,138.785 162.045,138.452 160.5,137.5C 157.772,135.747 154.939,134.08 152,132.5C 151.667,132.833 151.333,133.167 151,133.5C 150.626,132.584 150.126,131.75 149.5,131C 132.447,123.558 115.78,115.225 99.5,106C 98.2161,105.316 97.0495,105.483 96,106.5C 93.7972,102.386 90.2972,100.22 85.5,100C 83.6536,98.9702 81.9869,97.8036 80.5,96.5C 80.3284,95.5084 80.6618,94.8417 81.5,94.5 Z"/></g>
<g><path style="opacity:0.913" fill="#7886f2" d="M 43.5,115.5 C 46.267,115.87 48.267,117.204 49.5,119.5C 49.3404,121.153 48.6737,122.486 47.5,123.5C 45.8525,121.674 43.8525,120.34 41.5,119.5C 41.6596,117.847 42.3263,116.514 43.5,115.5 Z"/></g>
<g><path style="opacity:0.99" fill="#7f7ff2" d="M 69.5,115.5 C 95.5019,128.628 121.669,141.628 148,154.5C 156.826,159.72 165.659,164.72 174.5,169.5C 171.5,169.5 168.5,169.5 165.5,169.5C 163.25,167.031 160.583,165.031 157.5,163.5C 135.289,152.561 113.289,141.395 91.5,130C 83.2413,126.22 74.908,122.72 66.5,119.5C 67.5116,118.128 68.5116,116.795 69.5,115.5 Z"/></g>
<g><path style="opacity:1" fill="#b945f3" d="M 167.5,112.5 C 169.143,112.48 170.476,113.147 171.5,114.5C 172.086,114.291 172.586,113.957 173,113.5C 174.571,115.923 176.737,117.256 179.5,117.5C 180.167,118.833 180.833,120.167 181.5,121.5C 179.738,121.357 178.071,121.691 176.5,122.5C 174.729,121.965 174.396,121.131 175.5,120C 173.395,118.869 171.395,117.703 169.5,116.5C 168.833,115.167 168.167,113.833 167.5,112.5 Z"/></g>
<g><path style="opacity:1" fill="#b747f3" d="M 106.5,97.5 C 110.449,98.2246 113.949,99.8913 117,102.5C 117.333,102.167 117.667,101.833 118,101.5C 118.317,103.301 118.984,103.634 120,102.5C 127.901,108.242 136.234,113.242 145,117.5C 148.152,118.666 151.319,119.666 154.5,120.5C 156.192,122.205 157.525,124.205 158.5,126.5C 148.017,122.333 138.183,117.667 129,112.5C 128.667,112.833 128.333,113.167 128,113.5C 127.302,112.309 126.469,111.309 125.5,110.5C 125.911,107.724 125.078,107.057 123,108.5C 118.58,106.798 114.914,104.131 112,100.5C 110.984,101.634 110.317,101.301 110,99.5C 107.851,100.84 106.684,100.173 106.5,97.5 Z"/></g>
<g><path style="opacity:0.916" fill="#738bf2" d="M 41.5,119.5 C 43.8525,120.34 45.8525,121.674 47.5,123.5C 47.0679,124.71 46.4013,125.71 45.5,126.5C 43.322,125.343 41.322,124.01 39.5,122.5C 39.9321,121.29 40.5987,120.29 41.5,119.5 Z"/></g>
<g><path style="opacity:0.986" fill="#7985f2" d="M 66.5,119.5 C 74.908,122.72 83.2413,126.22 91.5,130C 113.289,141.395 135.289,152.561 157.5,163.5C 160.583,165.031 163.25,167.031 165.5,169.5C 163.167,169.5 160.833,169.5 158.5,169.5C 157.426,168.115 156.093,166.949 154.5,166C 141.633,159.545 128.633,153.378 115.5,147.5C 99.3402,138.087 82.6735,129.753 65.5,122.5C 65.5569,121.391 65.8902,120.391 66.5,119.5 Z"/></g>
<g><path style="opacity:1" fill="#b04ef3" d="M 101.5,98.5 C 102.051,101.09 103.384,101.756 105.5,100.5C 106.906,101.951 108.406,103.284 110,104.5C 110.333,104.167 110.667,103.833 111,103.5C 113.087,104.794 115.254,105.961 117.5,107C 119.835,110.574 122.501,111.74 125.5,110.5C 126.469,111.309 127.302,112.309 128,113.5C 128.333,113.167 128.667,112.833 129,112.5C 138.183,117.667 148.017,122.333 158.5,126.5C 160.267,128.938 161.601,131.605 162.5,134.5C 155.786,130.476 148.786,126.976 141.5,124C 137.853,120.666 133.52,118.666 128.5,118C 127.78,115.878 126.613,115.378 125,116.5C 119.679,114.198 114.846,111.031 110.5,107C 104.319,104.408 98.3189,101.575 92.5,98.5C 95.4773,97.3224 98.4773,97.3224 101.5,98.5 Z"/></g>
<g><path style="opacity:0.992" fill="#9e60f2" d="M 168.5,144.5 C 169.82,146.463 171.154,148.463 172.5,150.5C 158.085,144.569 144.252,137.569 131,129.5C 130.667,129.833 130.333,130.167 130,130.5C 127.215,127.163 123.882,125.83 120,126.5C 118.152,124.321 115.985,122.487 113.5,121C 101.034,114.423 88.7009,108.59 76.5,103.5C 76.3284,102.508 76.6618,101.842 77.5,101.5C 78.1174,101.389 78.6174,101.056 79,100.5C 104.91,113.267 132.41,126.767 161.5,141C 163.679,142.257 165.679,143.757 167.5,145.5C 168.107,145.376 168.44,145.043 168.5,144.5 Z"/></g>
<g><path style="opacity:0.935" fill="#b648f3" d="M 169.5,116.5 C 171.395,117.703 173.395,118.869 175.5,120C 174.396,121.131 174.729,121.965 176.5,122.5C 178.071,121.691 179.738,121.357 181.5,121.5C 183.008,123.181 184.008,125.181 184.5,127.5C 182.83,127.249 181.33,126.582 180,125.5C 178.703,126.784 177.536,126.617 176.5,125C 176.833,124.667 177.167,124.333 177.5,124C 176.207,123.51 174.873,123.343 173.5,123.5C 172.42,121.004 171.086,118.67 169.5,116.5 Z"/></g>
<g><path style="opacity:0.987" fill="#738bf2" d="M 65.5,122.5 C 82.6735,129.753 99.3402,138.087 115.5,147.5C 128.633,153.378 141.633,159.545 154.5,166C 156.093,166.949 157.426,168.115 158.5,169.5C 155.833,169.5 153.167,169.5 150.5,169.5C 148.684,167.863 146.684,166.363 144.5,165C 117.682,151.758 91.0155,138.258 64.5,124.5C 64.3284,123.508 64.6618,122.842 65.5,122.5 Z"/></g>
<g><path style="opacity:0.988" fill="#a45af3" d="M 80.5,96.5 C 81.9869,97.8036 83.6536,98.9702 85.5,100C 90.2972,100.22 93.7972,102.386 96,106.5C 97.0495,105.483 98.2161,105.316 99.5,106C 115.78,115.225 132.447,123.558 149.5,131C 150.126,131.75 150.626,132.584 151,133.5C 151.333,133.167 151.667,132.833 152,132.5C 154.939,134.08 157.772,135.747 160.5,137.5C 162.045,138.452 163.712,138.785 165.5,138.5C 166.5,140.5 167.5,142.5 168.5,144.5C 168.44,145.043 168.107,145.376 167.5,145.5C 165.679,143.757 163.679,142.257 161.5,141C 132.41,126.767 104.91,113.267 79,100.5C 78.6174,101.056 78.1174,101.389 77.5,101.5C 78.1103,99.5659 79.1103,97.8993 80.5,96.5 Z"/></g>
<g><path style="opacity:0.894" fill="#b14df2" d="M 173.5,123.5 C 174.873,123.343 176.207,123.51 177.5,124C 177.167,124.333 176.833,124.667 176.5,125C 177.536,126.617 178.703,126.784 180,125.5C 181.33,126.582 182.83,127.249 184.5,127.5C 186.25,128.659 187.25,130.326 187.5,132.5C 184.576,132.401 181.576,132.067 178.5,131.5C 176.847,128.869 175.181,126.203 173.5,123.5 Z"/></g>
<g><path style="opacity:0.932" fill="#6d91f1" d="M 39.5,122.5 C 41.322,124.01 43.322,125.343 45.5,126.5C 45.2503,128.674 44.2503,130.341 42.5,131.5C 40.35,129.644 38.0167,128.978 35.5,129.5C 36.5839,126.996 37.9172,124.663 39.5,122.5 Z"/></g>
<g><path style="opacity:0.986" fill="#6d91f1" d="M 64.5,124.5 C 91.0155,138.258 117.682,151.758 144.5,165C 146.684,166.363 148.684,167.863 150.5,169.5C 148.167,169.5 145.833,169.5 143.5,169.5C 116.962,154.754 89.9621,140.754 62.5,127.5C 62.427,125.973 63.0937,124.973 64.5,124.5 Z"/></g>
<g><path style="opacity:0.98" fill="#6698f1" d="M 62.5,127.5 C 89.9621,140.754 116.962,154.754 143.5,169.5C 140.5,169.5 137.5,169.5 134.5,169.5C 110.009,155.924 85.3427,142.924 60.5,130.5C 60.9321,129.29 61.5987,128.29 62.5,127.5 Z"/></g>
<g><path style="opacity:0.924" fill="#6698f1" d="M 35.5,129.5 C 38.0167,128.978 40.35,129.644 42.5,131.5C 42.2503,133.674 41.2503,135.341 39.5,136.5C 37.2163,136.025 35.2163,135.025 33.5,133.5C 33.6596,131.847 34.3263,130.514 35.5,129.5 Z"/></g>
<g><path style="opacity:0.979" fill="#609ef1" d="M 60.5,130.5 C 85.3427,142.924 110.009,155.924 134.5,169.5C 131.5,169.5 128.5,169.5 125.5,169.5C 125.063,167.926 124.063,166.759 122.5,166C 100.739,155.94 79.4053,145.44 58.5,134.5C 58.6596,132.847 59.3263,131.514 60.5,130.5 Z"/></g>
<g><path style="opacity:0.998" fill="#ae50f3" d="M 178.5,131.5 C 181.576,132.067 184.576,132.401 187.5,132.5C 188.89,133.899 189.89,135.566 190.5,137.5C 188.83,137.249 187.33,136.582 186,135.5C 185.667,135.833 185.333,136.167 185,136.5C 183.36,132.722 182.193,132.722 181.5,136.5C 180.263,135.035 179.263,133.368 178.5,131.5 Z"/></g>
<g><path style="opacity:0.867" fill="#5f9ef1" d="M 33.5,133.5 C 35.2163,135.025 37.2163,136.025 39.5,136.5C 39.0075,138.819 38.0075,140.819 36.5,142.5C 34.2279,141.559 32.2279,140.226 30.5,138.5C 30.7497,136.326 31.7497,134.659 33.5,133.5 Z"/></g>
<g><path style="opacity:0.967" fill="#aa53f2" d="M 190.5,137.5 C 192.924,140.008 194.59,143.008 195.5,146.5C 192.439,145.278 189.773,143.445 187.5,141C 186.207,140.51 184.873,140.343 183.5,140.5C 182.4,139.395 181.733,138.062 181.5,136.5C 182.193,132.722 183.36,132.722 185,136.5C 185.333,136.167 185.667,135.833 186,135.5C 187.33,136.582 188.83,137.249 190.5,137.5 Z"/></g>
<g><path style="opacity:0.98" fill="#5aa4f1" d="M 58.5,134.5 C 79.4053,145.44 100.739,155.94 122.5,166C 124.063,166.759 125.063,167.926 125.5,169.5C 123.833,169.5 122.167,169.5 120.5,169.5C 99.3249,158.655 77.9915,147.988 56.5,137.5C 56.9321,136.29 57.5987,135.29 58.5,134.5 Z"/></g>
<g><path style="opacity:0.908" fill="#59a5f1" d="M 30.5,138.5 C 32.2279,140.226 34.2279,141.559 36.5,142.5C 35.7368,144.368 34.7368,146.035 33.5,147.5C 31.7359,145.879 29.7359,144.546 27.5,143.5C 28.1103,141.566 29.1103,139.899 30.5,138.5 Z"/></g>
<g><path style="opacity:0.979" fill="#54aaf1" d="M 56.5,137.5 C 77.9915,147.988 99.3249,158.655 120.5,169.5C 117.5,169.5 114.5,169.5 111.5,169.5C 95.2097,161.355 78.8763,153.188 62.5,145C 59.589,143.778 57.2556,141.945 55.5,139.5C 55.3284,138.508 55.6618,137.842 56.5,137.5 Z"/></g>
<g><path style="opacity:0.971" fill="#4db1f1" d="M 55.5,139.5 C 57.2556,141.945 59.589,143.778 62.5,145C 78.8763,153.188 95.2097,161.355 111.5,169.5C 108.167,169.5 104.833,169.5 101.5,169.5C 85.8903,159.925 69.5569,151.592 52.5,144.5C 53.2632,142.632 54.2632,140.965 55.5,139.5 Z"/></g>
<g><path style="opacity:0.914" fill="#a45af2" d="M 183.5,140.5 C 184.873,140.343 186.207,140.51 187.5,141C 189.773,143.445 192.439,145.278 195.5,146.5C 197.588,148.336 198.921,150.669 199.5,153.5C 197.064,153.683 194.897,153.016 193,151.5C 192.667,151.833 192.333,152.167 192,152.5C 191.925,149.553 190.758,148.553 188.5,149.5C 187.087,146.339 185.42,143.339 183.5,140.5 Z"/></g>
<g><path style="opacity:0.93" fill="#53aaf1" d="M 27.5,143.5 C 29.7359,144.546 31.7359,145.879 33.5,147.5C 33.2671,149.062 32.6005,150.395 31.5,151.5C 29.3036,150.237 26.9703,149.237 24.5,148.5C 25.2632,146.632 26.2632,144.965 27.5,143.5 Z"/></g>
<g><path style="opacity:0.964" fill="#47b7f1" d="M 52.5,144.5 C 69.5569,151.592 85.8903,159.925 101.5,169.5C 98.8333,169.5 96.1667,169.5 93.5,169.5C 91.7472,167.777 89.7472,166.277 87.5,165C 75.4058,158.689 63.0724,152.856 50.5,147.5C 50.9321,146.29 51.5987,145.29 52.5,144.5 Z"/></g>
<g><path style="opacity:0.969" fill="#41bdf1" d="M 50.5,147.5 C 63.0724,152.856 75.4058,158.689 87.5,165C 89.7472,166.277 91.7472,167.777 93.5,169.5C 90.8333,169.5 88.1667,169.5 85.5,169.5C 85.0472,168.542 84.3805,167.708 83.5,167C 71.9952,161.747 60.6619,156.247 49.5,150.5C 49.5569,149.391 49.8902,148.391 50.5,147.5 Z"/></g>
<g><path style="opacity:0.889" fill="#4db1f0" d="M 24.5,148.5 C 26.9703,149.237 29.3036,150.237 31.5,151.5C 30.6493,153.882 29.316,155.882 27.5,157.5C 25.8883,155.667 24.2216,154 22.5,152.5C 22.6596,150.847 23.3263,149.514 24.5,148.5 Z"/></g>
<g><path style="opacity:0.873" fill="#9e60f2" d="M 199.5,153.5 C 202,156.494 204,159.827 205.5,163.5C 204.25,163.423 203.417,162.756 203,161.5C 202.667,162.167 202.333,162.833 202,163.5C 199.939,161.216 197.439,159.55 194.5,158.5C 192.265,155.709 190.265,152.709 188.5,149.5C 190.758,148.553 191.925,149.553 192,152.5C 192.333,152.167 192.667,151.833 193,151.5C 194.897,153.016 197.064,153.683 199.5,153.5 Z"/></g>
<g><path style="opacity:0.974" fill="#3bc3f0" d="M 49.5,150.5 C 60.6619,156.247 71.9952,161.747 83.5,167C 84.3805,167.708 85.0472,168.542 85.5,169.5C 82.8333,169.5 80.1667,169.5 77.5,169.5C 67.9258,163.708 57.9258,158.375 47.5,153.5C 47.427,151.973 48.0937,150.973 49.5,150.5 Z"/></g>
<g><path style="opacity:0.872" fill="#46b8f1" d="M 22.5,152.5 C 24.2216,154 25.8883,155.667 27.5,157.5C 27.2503,159.674 26.2503,161.341 24.5,162.5C 22.7952,160.808 20.7952,159.475 18.5,158.5C 19.3507,156.118 20.684,154.118 22.5,152.5 Z"/></g>
<g><path style="opacity:0.963" fill="#34caf0" d="M 47.5,153.5 C 57.9258,158.375 67.9258,163.708 77.5,169.5C 75.1667,169.5 72.8333,169.5 70.5,169.5C 62.1167,165.364 53.7834,161.031 45.5,156.5C 45.9321,155.29 46.5987,154.29 47.5,153.5 Z"/></g>
<g><path style="opacity:0.914" fill="#2ed0f0" d="M 45.5,156.5 C 53.7834,161.031 62.1167,165.364 70.5,169.5C 67.5,169.5 64.5,169.5 61.5,169.5C 55.8211,165.659 49.8211,162.326 43.5,159.5C 43.9321,158.29 44.5987,157.29 45.5,156.5 Z"/></g>
<g><path style="opacity:0.865" fill="#40bef0" d="M 18.5,158.5 C 20.7952,159.475 22.7952,160.808 24.5,162.5C 24.3404,164.153 23.6737,165.486 22.5,166.5C 20.0202,165.758 17.6869,164.758 15.5,163.5C 16.2485,161.668 17.2485,160.001 18.5,158.5 Z"/></g>
<g><path style="opacity:0.926" fill="#9867f2" d="M 194.5,158.5 C 197.439,159.55 199.939,161.216 202,163.5C 202.333,162.833 202.667,162.167 203,161.5C 203.417,162.756 204.25,163.423 205.5,163.5C 207.924,166.008 209.59,169.008 210.5,172.5C 206.833,171.167 203.167,169.833 199.5,168.5C 197.308,165.45 195.642,162.117 194.5,158.5 Z"/></g>
<g><path style="opacity:0.938" fill="#28d6f0" d="M 43.5,159.5 C 49.8211,162.326 55.8211,165.659 61.5,169.5C 59.1667,169.5 56.8333,169.5 54.5,169.5C 51.1882,167.275 47.5216,165.608 43.5,164.5C 42.7025,164.043 42.3691,163.376 42.5,162.5C 42.5569,161.391 42.8902,160.391 43.5,159.5 Z"/></g>
<g><path style="opacity:0.92" fill="#3ac3f0" d="M 15.5,163.5 C 17.6869,164.758 20.0202,165.758 22.5,166.5C 22.2671,168.062 21.6005,169.395 20.5,170.5C 17.872,170.05 15.5387,169.05 13.5,167.5C 14.1667,166.167 14.8333,164.833 15.5,163.5 Z"/></g>
<g><path style="opacity:0.87" fill="#22dcf0" d="M 42.5,162.5 C 42.3691,163.376 42.7025,164.043 43.5,164.5C 47.5216,165.608 51.1882,167.275 54.5,169.5C 52.1667,169.5 49.8333,169.5 47.5,169.5C 44.8763,168.506 42.2097,167.506 39.5,166.5C 40.0256,164.77 41.0256,163.436 42.5,162.5 Z"/></g>
<g><path style="opacity:0.647" fill="#1de2f0" d="M 39.5,166.5 C 42.2097,167.506 44.8763,168.506 47.5,169.5C 44.4281,169.817 41.4281,169.484 38.5,168.5C 38.8627,167.817 39.1961,167.15 39.5,166.5 Z"/></g>
<g><path style="opacity:0.946" fill="#34caf0" d="M 13.5,167.5 C 15.5387,169.05 17.872,170.05 20.5,170.5C 19.4196,172.996 18.0862,175.33 16.5,177.5C 15.596,176.791 15.2627,175.791 15.5,174.5C 13.4862,174.608 11.8195,173.942 10.5,172.5C 11.2632,170.632 12.2632,168.965 13.5,167.5 Z"/></g>
<g><path style="opacity:0.964" fill="#916cf2" d="M 199.5,168.5 C 203.167,169.833 206.833,171.167 210.5,172.5C 212.588,174.336 213.921,176.669 214.5,179.5C 214.44,180.043 214.107,180.376 213.5,180.5C 210.563,178.074 207.229,176.408 203.5,175.5C 202.42,173.004 201.086,170.67 199.5,168.5 Z"/></g>
<g><path style="opacity:0.901" fill="#2dd0f0" d="M 10.5,172.5 C 11.8195,173.942 13.4862,174.608 15.5,174.5C 15.2627,175.791 15.596,176.791 16.5,177.5C 15.7368,179.368 14.7368,181.035 13.5,182.5C 11.8613,180.488 9.86127,178.821 7.5,177.5C 8.26315,175.632 9.26315,173.965 10.5,172.5 Z"/></g>
<g><path style="opacity:0.948" fill="#8c72f2" d="M 203.5,175.5 C 207.229,176.408 210.563,178.074 213.5,180.5C 214.107,180.376 214.44,180.043 214.5,179.5C 216.735,182.291 218.735,185.291 220.5,188.5C 219.504,188.586 218.671,188.252 218,187.5C 217.667,188.167 217.333,188.833 217,189.5C 216.082,187.368 214.749,186.701 213,187.5C 211.908,185.883 210.408,184.883 208.5,184.5C 207.087,181.339 205.42,178.339 203.5,175.5 Z"/></g>
<g><path style="opacity:0.872" fill="#28d6f0" d="M 7.5,177.5 C 9.86127,178.821 11.8613,180.488 13.5,182.5C 13.3893,183.117 13.056,183.617 12.5,184C 16.4862,184.499 20.4862,184.666 24.5,184.5C 24.5106,186.017 25.1772,187.184 26.5,188C 30.0353,188.663 33.0353,190.163 35.5,192.5C 29.8333,192.5 24.1667,192.5 18.5,192.5C 18.5,191.833 18.8333,191.5 19.5,191.5C 20.552,191.649 21.552,191.483 22.5,191C 19.531,188.682 16.1977,187.182 12.5,186.5C 10.1515,184.659 7.48479,183.326 4.5,182.5C 5.24848,180.668 6.24848,179.001 7.5,177.5 Z"/></g>
<g><path style="opacity:0.914" fill="#22dcf0" d="M 4.5,182.5 C 7.48479,183.326 10.1515,184.659 12.5,186.5C 14.9336,187.985 17.2669,189.652 19.5,191.5C 18.8333,191.5 18.5,191.833 18.5,192.5C 16.5,192.5 14.5,192.5 12.5,192.5C 9.02111,190.597 5.35445,188.93 1.5,187.5C 2.75152,185.999 3.75152,184.332 4.5,182.5 Z"/></g>
<g><path style="opacity:0.852" fill="#2ed0f0" d="M 24.5,184.5 C 27.8333,184.5 31.1667,184.5 34.5,184.5C 40.0422,188.128 46.0422,190.795 52.5,192.5C 46.8333,192.5 41.1667,192.5 35.5,192.5C 33.0353,190.163 30.0353,188.663 26.5,188C 25.1772,187.184 24.5106,186.017 24.5,184.5 Z"/></g>
<g><path style="opacity:0.892" fill="#34caf1" d="M 34.5,184.5 C 38.5,184.5 42.5,184.5 46.5,184.5C 51.2382,186.465 55.9049,189.132 60.5,192.5C 57.8333,192.5 55.1667,192.5 52.5,192.5C 46.0422,190.795 40.0422,188.128 34.5,184.5 Z"/></g>
<g><path style="opacity:0.903" fill="#3ac4f1" d="M 46.5,184.5 C 50.8333,184.5 55.1667,184.5 59.5,184.5C 59.4701,185.497 59.9701,186.164 61,186.5C 64.5162,188.03 68.0162,189.53 71.5,191C 70.2625,191.232 69.2625,191.732 68.5,192.5C 65.8333,192.5 63.1667,192.5 60.5,192.5C 55.9049,189.132 51.2382,186.465 46.5,184.5 Z"/></g>
<g><path style="opacity:0.887" fill="#41bef1" d="M 59.5,184.5 C 64.1667,184.5 68.8333,184.5 73.5,184.5C 74.5736,185.885 75.9069,187.051 77.5,188C 81.0421,189.275 84.3755,190.775 87.5,192.5C 81.1667,192.5 74.8333,192.5 68.5,192.5C 69.2625,191.732 70.2625,191.232 71.5,191C 68.0162,189.53 64.5162,188.03 61,186.5C 59.9701,186.164 59.4701,185.497 59.5,184.5 Z"/></g>
<g><path style="opacity:0.884" fill="#47b7f1" d="M 73.5,184.5 C 76.5,184.5 79.5,184.5 82.5,184.5C 88.8729,187.241 95.2062,189.908 101.5,192.5C 96.8333,192.5 92.1667,192.5 87.5,192.5C 84.3755,190.775 81.0421,189.275 77.5,188C 75.9069,187.051 74.5736,185.885 73.5,184.5 Z"/></g>
<g><path style="opacity:0.897" fill="#4db1f1" d="M 82.5,184.5 C 87.8333,184.5 93.1667,184.5 98.5,184.5C 98.3932,186.379 98.8932,186.712 100,185.5C 102.408,187.956 105.241,189.789 108.5,191C 107.944,191.383 107.611,191.883 107.5,192.5C 105.5,192.5 103.5,192.5 101.5,192.5C 95.2062,189.908 88.8729,187.241 82.5,184.5 Z"/></g>
<g><path style="opacity:0.88" fill="#53abf1" d="M 98.5,184.5 C 101.833,184.5 105.167,184.5 108.5,184.5C 109.609,185.29 110.942,185.79 112.5,186C 113.126,186.75 113.626,187.584 114,188.5C 115.458,187.253 116.958,187.253 118.5,188.5C 120.489,189.632 122.156,190.965 123.5,192.5C 118.167,192.5 112.833,192.5 107.5,192.5C 107.611,191.883 107.944,191.383 108.5,191C 105.241,189.789 102.408,187.956 100,185.5C 98.8932,186.712 98.3932,186.379 98.5,184.5 Z"/></g>
<g><path style="opacity:0.905" fill="#5aa5f1" d="M 108.5,184.5 C 112.833,184.5 117.167,184.5 121.5,184.5C 124.227,185.705 126.727,187.372 129,189.5C 129.414,189.043 129.914,188.709 130.5,188.5C 133.163,189.476 135.496,190.81 137.5,192.5C 132.833,192.5 128.167,192.5 123.5,192.5C 122.156,190.965 120.489,189.632 118.5,188.5C 116.958,187.253 115.458,187.253 114,188.5C 113.626,187.584 113.126,186.75 112.5,186C 110.942,185.79 109.609,185.29 108.5,184.5 Z"/></g>
<g><path style="opacity:0.88" fill="#609ef1" d="M 121.5,184.5 C 124.833,184.5 128.167,184.5 131.5,184.5C 138.103,186.428 144.436,189.095 150.5,192.5C 146.167,192.5 141.833,192.5 137.5,192.5C 135.496,190.81 133.163,189.476 130.5,188.5C 129.914,188.709 129.414,189.043 129,189.5C 126.727,187.372 124.227,185.705 121.5,184.5 Z"/></g>
<g><path style="opacity:0.921" fill="#6698f2" d="M 131.5,184.5 C 136.167,184.5 140.833,184.5 145.5,184.5C 148.919,185.478 152.086,187.145 155,189.5C 155.333,189.167 155.667,188.833 156,188.5C 157.388,189.736 158.554,191.069 159.5,192.5C 156.5,192.5 153.5,192.5 150.5,192.5C 144.436,189.095 138.103,186.428 131.5,184.5 Z"/></g>
<g><path style="opacity:0.9" fill="#6c92f2" d="M 145.5,184.5 C 149.5,184.5 153.5,184.5 157.5,184.5C 161.063,186.423 164.896,188.09 169,189.5C 170.31,190.13 171.144,191.13 171.5,192.5C 167.5,192.5 163.5,192.5 159.5,192.5C 158.554,191.069 157.388,189.736 156,188.5C 155.667,188.833 155.333,189.167 155,189.5C 152.086,187.145 148.919,185.478 145.5,184.5 Z"/></g>
<g><path style="opacity:0.879" fill="#728cf2" d="M 157.5,184.5 C 161.5,184.5 165.5,184.5 169.5,184.5C 172.603,185.042 175.436,186.376 178,188.5C 178.333,188.167 178.667,187.833 179,187.5C 180.926,189.539 183.093,191.206 185.5,192.5C 180.833,192.5 176.167,192.5 171.5,192.5C 171.144,191.13 170.31,190.13 169,189.5C 164.896,188.09 161.063,186.423 157.5,184.5 Z"/></g>
<g><path style="opacity:0.911" fill="#7886f2" d="M 169.5,184.5 C 173.833,184.5 178.167,184.5 182.5,184.5C 184.975,185.131 187.309,186.131 189.5,187.5C 192.009,188.921 194.343,190.588 196.5,192.5C 192.833,192.5 189.167,192.5 185.5,192.5C 183.093,191.206 180.926,189.539 179,187.5C 178.667,187.833 178.333,188.167 178,188.5C 175.436,186.376 172.603,185.042 169.5,184.5 Z"/></g>
<g><path style="opacity:0.915" fill="#8578f2" d="M 202.5,184.5 C 204.5,184.5 206.5,184.5 208.5,184.5C 210.408,184.883 211.908,185.883 213,187.5C 214.749,186.701 216.082,187.368 217,189.5C 217.333,188.833 217.667,188.167 218,187.5C 218.671,188.252 219.504,188.586 220.5,188.5C 220.932,189.71 221.599,190.71 222.5,191.5C 222.5,191.833 222.5,192.167 222.5,192.5C 217.5,192.5 212.5,192.5 207.5,192.5C 207.918,191.778 208.584,191.278 209.5,191C 207.167,189.833 204.833,188.667 202.5,187.5C 201.438,186.575 201.438,185.575 202.5,184.5 Z"/></g>
<g><path style="opacity:0.941" fill="#7f7ff2" d="M 182.5,184.5 C 189.167,184.5 195.833,184.5 202.5,184.5C 201.438,185.575 201.438,186.575 202.5,187.5C 204.833,188.667 207.167,189.833 209.5,191C 208.584,191.278 207.918,191.778 207.5,192.5C 205.167,192.5 202.833,192.5 200.5,192.5C 197.346,190.662 194.18,188.662 191,186.5C 190.617,187.056 190.117,187.389 189.5,187.5C 187.309,186.131 184.975,185.131 182.5,184.5 Z"/></g>
<g><path style="opacity:0.999" fill="#24d9f0" d="M 12.5,186.5 C 16.1977,187.182 19.531,188.682 22.5,191C 21.552,191.483 20.552,191.649 19.5,191.5C 17.2669,189.652 14.9336,187.985 12.5,186.5 Z"/></g>
<g><path style="opacity:0.843" fill="#7b82f2" d="M 200.5,192.5 C 199.167,192.5 197.833,192.5 196.5,192.5C 194.343,190.588 192.009,188.921 189.5,187.5C 190.117,187.389 190.617,187.056 191,186.5C 194.18,188.662 197.346,190.662 200.5,192.5 Z"/></g>
<g><path style="opacity:0.773" fill="#1de2f0" d="M 1.5,187.5 C 5.35445,188.93 9.02111,190.597 12.5,192.5C 8.16667,192.5 3.83333,192.5 -0.5,192.5C -0.5,191.833 -0.5,191.167 -0.5,190.5C 0.40128,189.71 1.06795,188.71 1.5,187.5 Z"/></g>
</svg>
